<svg width="370" height="181" viewBox="0 0 370 181" fill="none" xmlns="http://www.w3.org/2000/svg">
<path d="M362.557 95.1876C342.914 122.729 314.692 143.155 277.893 156.467C248.689 167.254 217.718 172.647 184.978 172.647C152.239 172.647 121.267 167.254 92.0635 156.467C55.2643 143.155 27.0428 122.729 7.39911 95.1876V84.8596C27.1738 57.3184 55.3952 36.8921 92.0635 23.5805C121.267 12.7935 152.239 7.40002 184.978 7.40002C217.718 7.40002 248.689 12.7935 277.893 23.5805C314.561 36.8921 342.783 57.3184 362.557 84.8596V95.1876ZM351.557 90.0236C332.437 66.3841 305.721 48.8266 271.41 37.3511C244.04 27.9412 215.229 23.2362 184.978 23.2362C154.727 23.2362 125.916 27.9412 98.5459 37.3511C64.2349 49.0561 37.5195 66.6136 18.3996 90.0236C37.5195 113.434 64.2349 130.991 98.5459 142.696C125.916 152.106 154.727 156.811 184.978 156.811C215.229 156.811 244.04 152.106 271.41 142.696C305.721 130.991 332.437 113.434 351.557 90.0236Z" fill="black"/>
<path d="M362.557 84.86C343.401 58.1797 316.317 38.1768 281.307 24.8504L277.894 23.5811C249.602 13.1312 219.651 7.74372 188.042 7.41721L184.978 7.40035C152.239 7.40035 121.266 12.7942 92.0628 23.5811L88.6498 24.8504C53.6393 38.1768 26.5557 58.1797 7.39913 84.86V95.1879C27.0427 122.729 55.2639 143.155 92.0628 156.467C120.354 166.917 150.305 172.304 181.914 172.631L184.978 172.648C217.718 172.648 248.69 167.254 277.894 156.467C314.692 143.155 342.914 122.729 362.557 95.1879V84.86ZM187.811 23.2511C217.029 23.5361 244.895 28.2353 271.41 37.3509C305.721 48.8264 332.437 66.3844 351.557 90.0239C332.437 113.434 305.721 130.992 271.41 142.697C244.04 152.107 215.229 156.811 184.978 156.811V149.412C214.448 149.412 242.444 144.832 269.006 135.7L269.02 135.693L272.118 134.614C301.531 124.121 324.662 109.192 341.836 89.9999C324.071 69.9659 299.934 54.6941 269.064 44.3695L269.035 44.3574L269.006 44.3478C242.444 35.2159 214.448 30.6358 184.978 30.6358C155.508 30.6358 127.512 35.2159 100.95 44.3478L100.936 44.355C70.0571 54.8892 45.9101 70.1748 28.1393 90.0239C45.3118 109.205 68.4369 124.125 97.8385 134.614L100.936 135.693L100.95 135.7L103.446 136.543C129.264 145.114 156.429 149.412 184.978 149.412V156.811L182.146 156.797C152.928 156.512 125.061 151.813 98.5466 142.697C64.2356 130.992 37.5189 113.434 18.3991 90.0239C36.9213 67.3457 62.572 50.1597 95.3505 38.4661L98.5466 37.3509C125.917 27.9412 154.727 23.2367 184.978 23.2367L187.811 23.2511ZM369.956 97.5555L368.581 99.4848C347.943 128.42 318.415 149.666 280.454 163.406L280.456 163.408C250.39 174.514 218.547 180.047 184.978 180.047C151.41 180.047 119.566 174.514 89.5001 163.408V163.406C52.7261 150.095 23.8666 129.741 3.33587 102.175L1.37529 99.4848L0 97.5555V82.4779L1.38974 80.5438C21.5106 52.5208 49.8503 31.702 86.0149 17.9354L89.5386 16.6252C119.593 5.52923 151.424 0.0012209 184.978 0.0012207C218.532 0.0012207 250.361 5.52976 280.415 16.6252H280.418C318.269 30.3663 347.797 51.617 368.567 80.5438L369.956 82.4779V97.5555Z" fill="black"/>
<path d="M325.716 136.885H303.672L284.096 114.225L264.056 137.656L244.171 114.225L224.286 137.656L204.401 114.225L184.516 137.656L164.63 114.225L144.745 137.656L124.86 114.225L104.975 137.656L85.0898 114.225L65.513 136.885H43.4697L85.0898 87.4032L104.975 110.834L124.86 87.4032L144.745 110.834L164.63 87.4032L184.516 110.834L204.401 87.4032L224.286 110.834L244.171 87.4032L264.056 110.834L284.096 87.4032L325.716 136.885ZM310.455 129.794L283.941 98.3477L264.056 121.624L244.171 98.1936L224.286 121.624L204.401 98.1936L184.516 121.624L164.63 98.1936L144.745 121.624L124.86 98.1936L104.975 121.624L85.244 98.3477L58.7304 129.794H62.2758L85.244 103.435L104.975 126.865L124.86 103.435L144.745 126.865L164.63 103.435L184.516 126.865L204.401 103.435L224.286 126.865L244.171 103.435L264.056 126.865L283.941 103.435L306.909 129.794H310.455Z" fill="black"/>
<path d="M104.975 108.162L124.86 84.7343L144.745 108.162L164.63 84.7343L184.516 108.162L204.401 84.7343L224.286 108.162L244.171 84.7343L264.061 108.17L284.108 84.7343L329.425 138.612H302.882L284.1 116.872L264.051 140.317L244.171 116.894L224.286 140.324L204.401 116.894L184.516 140.324L164.63 116.894L144.745 140.324L124.86 116.894L104.975 140.324L85.0754 116.879L66.303 138.612H39.7606L85.085 84.7271L104.975 108.162ZM264.056 110.834L244.171 87.403L224.286 110.834L204.401 87.403L184.516 110.834L164.63 87.403L144.745 110.834L124.86 87.403L104.975 110.834L85.0898 87.403L43.4698 136.885H65.513L85.0898 114.225L104.975 137.655L124.86 114.225L144.745 137.655L164.63 114.225L184.516 137.655L204.401 114.225L224.286 137.655L244.171 114.225L264.056 137.655L284.096 114.225L303.672 136.885H325.716L284.096 87.403L264.056 110.834ZM264.056 121.624L283.941 98.3475L310.455 129.794H306.91L283.941 103.434L264.056 126.865L244.171 103.434L224.286 126.865L204.401 103.434L184.516 126.865L164.63 103.434L144.745 126.865L124.86 103.434L104.975 126.865L85.244 103.434L62.2759 129.794H58.7305L85.244 98.3475L104.975 121.624L124.86 98.1934L144.745 121.624L164.63 98.1934L184.516 121.624L204.401 98.1934L224.286 121.624L244.171 98.1934L264.056 121.624Z" fill="black"/>
</svg>
