<svg width="113" height="55" viewBox="0 0 113 55" fill="none" xmlns="http://www.w3.org/2000/svg">
<path d="M110.74 29.0738C104.74 37.4861 96.12 43.7251 84.88 47.791C75.96 51.0858 66.5 52.7332 56.5 52.7332C46.5 52.7332 37.04 51.0858 28.12 47.791C16.88 43.7251 8.25995 37.4861 2.25995 29.0738V25.9193C8.29995 17.507 16.92 11.268 28.12 7.20207C37.04 3.90728 46.5 2.25989 56.5 2.25989C66.5 2.25989 75.96 3.90728 84.88 7.20207C96.08 11.268 104.7 17.507 110.74 25.9193V29.0738ZM107.38 27.4966C101.54 20.2761 93.38 14.9133 82.9 11.4082C74.54 8.534 65.74 7.09692 56.5 7.09692C47.26 7.09692 38.46 8.534 30.1 11.4082C19.62 14.9834 11.4599 20.3462 5.61995 27.4966C11.4599 34.6469 19.62 40.0097 30.1 43.5849C38.46 46.4591 47.26 47.8962 56.5 47.8962C65.74 47.8962 74.54 46.4591 82.9 43.5849C93.38 40.0097 101.54 34.6469 107.38 27.4966Z" fill="#11434E"/>
<path d="M110.74 25.9194C104.889 17.7701 96.6163 11.6604 85.9227 7.58998L84.8802 7.20228C76.2389 4.01044 67.0906 2.36488 57.4358 2.26515L56.5 2.26C46.5 2.26 37.0398 3.90749 28.1198 7.20228L27.0773 7.58998C16.3837 11.6604 8.1112 17.7701 2.26 25.9194V29.074C8.25996 37.4861 16.8799 43.7251 28.1198 47.7911C36.7611 50.9829 45.9094 52.6285 55.5642 52.7282L56.5 52.7333C66.5 52.7333 75.9602 51.0858 84.8802 47.7911C96.1201 43.7251 104.74 37.4861 110.74 29.074V25.9194ZM57.3652 7.10149C66.2896 7.18852 74.8012 8.62386 82.8998 11.4081C93.3798 14.9132 101.54 20.2762 107.38 27.4967C101.54 34.6471 93.3798 40.01 82.8998 43.5852C74.5399 46.4593 65.7399 47.8963 56.5 47.8963V45.6363C65.5014 45.6363 74.0526 44.2373 82.1656 41.448L82.17 41.4458L83.1161 41.1163C92.1001 37.9114 99.1652 33.3513 104.411 27.4893C98.9847 21.3701 91.6121 16.7055 82.1832 13.5519L82.1744 13.5482L82.1656 13.5453C74.0526 10.756 65.5014 9.35708 56.5 9.35708C47.4986 9.35708 38.9474 10.756 30.8344 13.5453L30.83 13.5475C21.3983 16.7651 14.0228 21.4339 8.59492 27.4967C13.8401 33.3553 20.9035 37.9127 29.8839 41.1163L30.83 41.4458L30.8344 41.448L31.5966 41.7055C39.4826 44.3235 47.7799 45.6363 56.5 45.6363V47.8963L55.6348 47.8918C46.7104 47.8048 38.1988 46.3695 30.1002 43.5852C19.6202 40.01 11.4598 34.6471 5.61984 27.4967C11.2773 20.5698 19.1121 15.3205 29.124 11.7488L30.1002 11.4081C38.4602 8.53403 47.2601 7.09708 56.5 7.09708L57.3652 7.10149ZM113 29.7971L112.58 30.3864C106.276 39.2245 97.2572 45.7137 85.6622 49.9105L85.663 49.9113C76.4796 53.3033 66.7533 54.9933 56.5 54.9933C46.2467 54.9933 36.5204 53.3033 27.337 49.9113V49.9105C16.1047 45.8448 7.28984 39.6278 1.01891 31.2082L0.420072 30.3864L0 29.7971V25.1918L0.424486 24.601C6.57024 16.0417 15.2263 9.68272 26.2725 5.47785L27.3488 5.07764C36.5287 1.68848 46.2511 5.91855e-08 56.5 0C66.7486 0 76.4707 1.68864 85.6505 5.07764H85.6512C97.2126 9.27476 106.232 15.7656 112.576 24.601L113 25.1918V29.7971Z" fill="#11434E"/>
<path d="M99.4871 41.8099H92.7541L86.7746 34.8887L80.6537 42.0453L74.58 34.8887L68.5062 42.0453L62.4325 34.8887L56.3587 42.0453L50.285 34.8887L44.2112 42.0453L38.1375 34.8887L32.0637 42.0453L25.99 34.8887L20.0104 41.8099H13.2775L25.99 26.6962L32.0637 33.8528L38.1375 26.6962L44.2112 33.8528L50.285 26.6962L56.3587 33.8528L62.4325 26.6962L68.5062 33.8528L74.58 26.6962L80.6537 33.8528L86.7746 26.6962L99.4871 41.8099ZM94.8258 39.6441L86.7275 30.0391L80.6537 37.1487L74.58 29.992L68.5062 37.1487L62.4325 29.992L56.3587 37.1487L50.285 29.992L44.2112 37.1487L38.1375 29.992L32.0637 37.1487L26.0371 30.0391L17.9387 39.6441H19.0216L26.0371 31.5928L32.0637 38.7495L38.1375 31.5928L44.2112 38.7495L50.285 31.5928L56.3587 38.7495L62.4325 31.5928L68.5062 38.7495L74.58 31.5928L80.6537 38.7495L86.7275 31.5928L93.7429 39.6441H94.8258Z" fill="#11434E"/>
<path d="M32.0637 33.0369L38.1375 25.881L44.2112 33.0369L50.285 25.881L56.3587 33.0369L62.4325 25.881L68.5062 33.0369L74.58 25.881L80.6552 33.0391L86.7782 25.881L100.62 42.3374H92.5129L86.776 35.6971L80.6523 42.8582L74.58 35.7038L68.5062 42.8604L62.4325 35.7038L56.3587 42.8604L50.285 35.7038L44.2112 42.8604L38.1375 35.7038L32.0637 42.8604L25.9856 35.6993L20.2517 42.3374H12.1445L25.9885 25.8788L32.0637 33.0369ZM80.6537 33.8528L74.58 26.6961L68.5062 33.8528L62.4325 26.6961L56.3587 33.8528L50.285 26.6961L44.2112 33.8528L38.1375 26.6961L32.0637 33.8528L25.99 26.6961L13.2775 41.8099H20.0104L25.99 34.8886L32.0637 42.0453L38.1375 34.8886L44.2112 42.0453L50.285 34.8886L56.3587 42.0453L62.4325 34.8886L68.5062 42.0453L74.58 34.8886L80.6537 42.0453L86.7746 34.8886L92.7542 41.8099H99.4871L86.7746 26.6961L80.6537 33.8528ZM80.6537 37.1486L86.7275 30.039L94.8258 39.644H93.7429L86.7275 31.5928L80.6537 38.7495L74.58 31.5928L68.5062 38.7495L62.4325 31.5928L56.3587 38.7495L50.285 31.5928L44.2112 38.7495L38.1375 31.5928L32.0637 38.7495L26.0371 31.5928L19.0216 39.644H17.9387L26.0371 30.039L32.0637 37.1486L38.1375 29.992L44.2112 37.1486L50.285 29.992L56.3587 37.1486L62.4325 29.992L68.5062 37.1486L74.58 29.992L80.6537 37.1486Z" fill="#11434E"/>
</svg>
